<?xml version="1.0" encoding="UTF-8"?>
<!DOCTYPE svg PUBLIC "-//W3C//DTD SVG 1.1//EN" "http://www.w3.org/Graphics/SVG/1.1/DTD/svg11.dtd">
<!-- Creator: CorelDRAW X7 -->
<svg xmlns="http://www.w3.org/2000/svg" xml:space="preserve" width="71.6312mm" height="44.3513mm" version="1.1" style="shape-rendering:geometricPrecision; text-rendering:geometricPrecision; image-rendering:optimizeQuality; fill-rule:evenodd; clip-rule:evenodd"
viewBox="0 0 914 566"
 xmlns:xlink="http://www.w3.org/1999/xlink">
 <defs>
  <style type="text/css">
   <![CDATA[
    .fil7 {fill:#F1E2A9}
    .fil1 {fill:#FEFEFE;fill-rule:nonzero}
    .fil2 {fill:#F3C120;fill-rule:nonzero}
    .fil0 {fill:url(#id0)}
    .fil3 {fill:url(#id1)}
    .fil6 {fill:url(#id2)}
    .fil4 {fill:url(#id3)}
    .fil5 {fill:url(#id4)}
   ]]>
  </style>
  <linearGradient id="id0" gradientUnits="userSpaceOnUse" x1="593.605" y1="189.078" x2="753.728" y2="117.825">
   <stop offset="0" style="stop-opacity:1; stop-color:#F3C120"/>
   <stop offset="1" style="stop-opacity:1; stop-color:#F1E2A9"/>
  </linearGradient>
  <radialGradient id="id1" gradientUnits="userSpaceOnUse" gradientTransform="matrix(7.13173E-017 1.1647 -1.60119 9.80443E-017 1435 -570)" cx="819.331" cy="384.764" r="142.408" fx="819.331" fy="384.764">
   <stop offset="0" style="stop-opacity:1; stop-color:#F1E2A9"/>
   <stop offset="1" style="stop-opacity:1; stop-color:#F3C120"/>
  </radialGradient>
  <radialGradient id="id2" gradientUnits="userSpaceOnUse" gradientTransform="matrix(5.89036E-017 -0.961968 1.32245 8.09767E-017 256 1146)" xlink:href="#id1" cx="779.624" cy="396.016" r="73.1245" fx="779.624" fy="396.016">
  </radialGradient>
  <radialGradient id="id3" gradientUnits="userSpaceOnUse" gradientTransform="matrix(1.6549 -0.691178 0.950185 1.2038 -961 413)" xlink:href="#id1" cx="744.48" cy="497.901" r="55.24" fx="744.48" fy="497.901">
  </radialGradient>
  <radialGradient id="id4" gradientUnits="userSpaceOnUse" gradientTransform="matrix(-2.30497 -2.82277E-016 2.0533E-016 -1.67665 2550 1137)" xlink:href="#id1" cx="771.627" cy="424.647" r="89.0519" fx="771.627" fy="424.647">
  </radialGradient>
 </defs>
 <g id="Layer_x0020_1">
  <metadata id="CorelCorpID_0Corel-Layer"/>
  <g id="_2357499859760">
   <path class="fil0" d="M675 106l0 0zm0 0c-1,1 -1,2 -1,2 0,0 0,0 0,0l-1 1c0,0 0,1 0,1 0,0 -1,0 -1,1l-1 1c0,1 0,1 0,1l-6 12c-5,9 -21,53 -17,68 1,0 1,-1 1,-2 14,-43 68,-70 103,-86 1,0 1,0 1,0l5 -2c2,-1 3,-3 2,-5 -18,-33 -76,-81 -103,-94 -2,-2 -4,-4 -7,-4 -4,0 -2,6 -3,10l0 5c0,0 0,1 0,1 -1,5 -4,16 -5,21 -1,2 -2,6 -3,9l-8 19c0,1 0,0 0,1 -39,90 -81,167 15,235 2,1 4,3 6,4 2,1 2,2 5,2 0,-2 1,-1 0,-4 -1,-1 -1,-2 -1,-3l-2 -6c-1,-2 -1,-3 -2,-4 0,0 0,-1 0,-1 0,-1 0,-1 -1,-2l0 -3c-1,-2 -2,-4 -3,-7 0,0 0,0 -1,0l0 -1c-1,-1 -1,-1 -1,-1l-4 -7c-1,-2 -3,-5 -4,-7 -2,-5 -7,-18 -8,-24 -1,-2 -2,-6 -2,-8l-1 -14c0,-3 0,-10 1,-12 0,-2 0,-3 0,-4 3,-17 7,-27 14,-43 10,-19 17,-29 30,-46 1,-1 1,-3 3,-4z"/>
   <path class="fil1" d="M113 241c-10,0 -18,0 -24,0 -6,0 -11,0 -15,0 -3,0 -5,0 -7,0 -1,0 -2,0 -3,1 1,-2 2,-4 2,-6 1,-2 2,-5 3,-7 1,-2 3,-4 4,-5 2,-2 4,-3 6,-3l57 0 9 -31 -76 0c-8,0 -16,1 -23,3 -7,2 -13,6 -18,10 -6,4 -11,9 -16,14 -4,6 -8,12 -12,19 0,1 0,1 1,1 0,1 1,1 2,0 0,0 0,0 1,0 2,-2 4,-4 6,-5 2,-1 4,-2 6,-3 2,0 4,-1 5,-1 2,-1 4,-1 6,-2 -4,9 -7,17 -10,26 -2,8 -5,17 -6,26 -1,5 -1,9 -1,14 0,5 1,10 3,15 2,4 4,8 8,11 3,3 8,5 13,5 25,3 50,2 74,-1l10 -33c-10,2 -20,3 -30,3 -10,0 -20,0 -30,-2 -2,0 -4,-1 -5,-2 -1,-2 -2,-3 -1,-5 0,-3 0,-6 1,-8 1,-3 2,-6 2,-8l50 0 8 -26zm113 53l0 28 37 0 0 -132 -38 0c-1,0 -2,0 -5,1 -2,0 -4,1 -7,3 -3,1 -6,4 -10,7 -3,4 -7,8 -10,14l-64 107 41 0 16 -28 40 0zm-27 -24l28 -49 0 49 -28 0zm162 52l37 0 -14 -41c5,-2 9,-6 13,-9 3,-4 7,-8 9,-12 4,-6 7,-13 9,-19 2,-7 3,-14 3,-21 0,-5 -1,-9 -3,-13 -3,-4 -6,-7 -9,-9 -4,-3 -8,-5 -12,-6 -5,-1 -9,-2 -14,-2l-66 0 -40 132 38 0 12 -38 24 0 13 38zm-29 -65l13 -43 24 0c2,0 3,1 5,1 1,1 2,2 3,3 1,2 2,3 2,5 1,1 1,3 1,4 0,4 -1,8 -2,12 -2,3 -4,7 -6,9 -1,2 -2,3 -3,4 -1,1 -3,2 -4,3 -2,1 -3,1 -6,2 -2,0 -5,0 -8,0l-19 0zm177 -53c0,-2 -1,-4 -2,-5 -1,-2 -3,-4 -5,-5 -1,-1 -3,-2 -5,-3 -3,0 -5,-1 -7,-1l-39 0 -40 132 39 0 28 -92 18 92 47 0 40 -132 -38 0 -24 77 -12 -63z"/>
   <path class="fil2" d="M311 415c-10,0 -19,0 -25,0 -6,0 -10,0 -14,0 -3,0 -5,0 -7,0 -1,0 -3,0 -4,1l7 -27 51 0 10 -32 -52 0 0 0 0 0c-11,0 -19,1 -26,3 -7,2 -13,5 -18,9 -5,4 -10,8 -14,14 -4,6 -7,13 -11,20 -1,1 0,1 0,1 1,1 2,1 2,0 1,0 1,0 1,0 2,-2 4,-5 7,-6 3,-2 6,-4 10,-5l-29 96 40 0 15 -49 49 0 8 -25zm2 74l40 0 40 -132 -40 0 -40 132zm161 -118c0,-2 -1,-4 -2,-5 -2,-2 -3,-4 -5,-5 -2,-1 -4,-2 -6,-3 -2,0 -4,-1 -6,-1l-40 0 -39 132 39 0 27 -91 19 91 47 0 39 -132 -38 0 -23 77 -12 -63zm181 37c-10,0 -18,0 -24,0 -6,0 -11,0 -15,0 -3,0 -5,0 -7,0 -1,0 -2,1 -4,1 2,-2 3,-4 4,-6 0,-3 1,-5 3,-7 1,-2 2,-4 4,-5 1,-2 3,-2 5,-2l56 0 10 -32 -76 0c-8,0 -16,1 -23,3 -7,3 -13,6 -19,10 -5,4 -10,9 -15,14 -4,6 -8,12 -12,19 0,1 0,1 1,1 0,1 1,1 2,0 0,0 0,0 0,0 3,-2 5,-4 7,-5 2,-1 4,-2 6,-3 2,0 4,-1 5,-1 2,0 4,-1 6,-2 -4,9 -7,17 -10,26 -3,8 -5,17 -6,26 -1,5 -1,9 -1,14 0,6 1,10 3,15 2,4 4,8 8,11 3,3 8,5 13,5 25,3 50,2 74,-1l9 -33c-9,2 -19,3 -29,3 -11,0 -21,0 -31,-2 -1,0 -3,-1 -4,-2 -1,-2 -2,-3 -2,-5 1,-3 1,-5 2,-8 1,-3 2,-6 2,-8l50 0 8 -26z"/>
   <path class="fil3" d="M780 423l70 109c25,43 28,33 64,33l-106 -133 57 -129 -85 120z"/>
   <polygon class="fil4" points="725,507 772,507 787,474 848,543 774,433 "/>
   <path class="fil5" d="M746 419l-58 88 29 0 55 -82 -45 -72c-6,-9 -12,-11 -38,-11l57 77z"/>
   <path class="fil6" d="M775 385l-48 -43 48 73 50 -72c-35,-2 -25,1 -50,42z"/>
   <path class="fil7" d="M672 311c0,0 -17,-20 -17,-81 0,0 -3,-49 47,-87 0,0 42,-27 89,-42 0,0 55,-20 69,-33 3,-3 15,-20 15,-3 0,1 0,1 0,1 0,0 18,82 4,149 0,0 -9,78 -99,103 0,0 -44,12 -67,6 0,0 -10,-3 -11,-39 0,0 -2,-52 31,-86 42,-47 79,-47 80,-47 0,0 -85,0 -124,64 0,0 -21,26 -17,95z"/>
  </g>
 </g>
</svg>
