<?xml version="1.0" encoding="utf-8"?>
<svg id="Capa_1" enable-background="new 0 0 510 510" height="512" viewBox="0 0 510 510" width="512" xmlns="http://www.w3.org/2000/svg"><g><g><path d="m255 0c-26.312 0-200.698 0-225 0v510h225l15-255z" fill="#3e4665"/><path d="m480 0c-42.007 0-173.384 0-225 0v510h225c0-61.979 0-447.612 0-510z" fill="#2e2f4c"/><path d="m150 30v450h105l15-225-15-225c-28.278 0-88.527 0-105 0z" fill="#e8f1fd"/><g fill="#cfdbfd"><path d="m360 30c-28.278 0-88.527 0-105 0v450h105c0-12.685 0-437.315 0-450z"/><path d="m120 480c-7.259 0-52.693 0-60 0 0-10.889 0-79.04 0-90h60z"/><path d="m120 360c-7.259 0-52.693 0-60 0 0-10.889 0-79.04 0-90h60z"/><path d="m120 240c-7.259 0-52.693 0-60 0 0-10.889 0-79.04 0-90h60z"/><path d="m60 30h60v90c-7.259 0-52.693 0-60 0 0-10.889 0-79.04 0-90z"/></g><path d="m390 480h60c0-10.889 0-79.04 0-90-7.259 0-52.693 0-60 0z" fill="#b3c7ef"/><path d="m390 360h60c0-10.889 0-79.04 0-90-7.259 0-52.693 0-60 0z" fill="#b3c7ef"/><path d="m390 240h60c0-10.889 0-79.04 0-90-7.259 0-52.693 0-60 0z" fill="#b3c7ef"/><path d="m390 120h60c0-10.889 0-79.04 0-90-7.259 0-52.693 0-60 0z" fill="#b3c7ef"/></g><path d="m240 225c-10.492-5.246-19.508-9.754-30-15v90l30-15 15-7.5 15-22.5-15-22.5c-6.549-3.274-11.99-5.995-15-7.5z" fill="#f17b4a"/><path d="m255 232.5v45l45-22.5c-11.15-5.575-30.714-15.357-45-22.5z" fill="#f14a59"/></g></svg>