<svg id="Capa_1" enable-background="new 0 0 497 497" height="512" viewBox="0 0 497 497" width="512" xmlns="http://www.w3.org/2000/svg"><g><path d="m407 128.5h-30v300h30c16.568 0 30-13.431 30-30v-240c0-16.569-13.432-30-30-30z" fill="#54ecd3"/><path d="m407 398.5v-240c0-16.569-13.432-30-30-30h-347c-16.568 0-30 13.431-30 30v30l30 30-30 30v150c0 16.569 13.432 30 30 30h347c16.568 0 30-13.431 30-30z" fill="#93faec"/><path d="m0 188.5h240v60h-240z" fill="#145c70"/><path d="m467 68.5h-30v300h30c16.568 0 30-13.431 30-30v-240c0-16.569-13.431-30-30-30z" fill="#3aafa7"/><path d="m467 338.5v-240c0-16.569-13.432-30-30-30h-347c-16.568 0-30 13.431-30 30v240c0 16.569 13.432 30 30 30h347c16.569 0 30-13.431 30-30z" fill="#47cdbd"/><path d="m225 128.5h-15l-30 45 30 45h15c8.284 0 15-6.716 15-15v-60c0-8.284-6.716-15-15-15z" fill="#fff1a0"/><path d="m150 128.5h-15c-8.284 0-15 6.716-15 15v60c0 8.284 6.716 15 15 15h15l30-45z" fill="#fff1a0"/><path d="m210 128.5h-60v30l15 15-15 15v30h60v-30l-15-15 15-15z" fill="#ffe341"/><path d="m150 158.5h60v30h-60z" fill="#ffc649"/><path d="m240 316h-120c-4.143 0-7.5-3.358-7.5-7.5s3.357-7.5 7.5-7.5h120c4.143 0 7.5 3.358 7.5 7.5s-3.357 7.5-7.5 7.5z" fill="#3aafa7"/><path d="m437 248.5h-30l-30 15 30 15h30z" fill="#c6f2ff"/><path d="m120 248.5h287v30h-287z" fill="#fff"/></g></svg>